<svg width="25" height="23" viewBox="0 0 25 23" fill="none" xmlns="http://www.w3.org/2000/svg">
<path d="M25 10.0161C25 8.28218 23.5944 6.87663 21.8605 6.87663C20.9921 6.87663 20.2076 7.23065 19.6395 7.80057C17.8838 6.66823 15.6408 5.94664 13.1774 5.83406C13.1789 4.78812 13.6474 3.8131 14.4634 3.15847C15.2809 2.50274 16.3366 2.25717 17.3592 2.4843L17.4997 2.51548C17.4983 2.55068 17.4944 2.58518 17.4944 2.62073C17.4944 4.0681 18.6677 5.24145 20.1151 5.24145C21.5625 5.24145 22.7359 4.0681 22.7359 2.62073C22.7359 1.17329 21.5625 0 20.1151 0C19.1844 0 18.3692 0.486492 17.9042 1.21763L17.6531 1.16183C16.2271 0.84499 14.7553 1.18755 13.6157 2.10177C12.4775 3.01489 11.8243 4.37505 11.8228 5.83406C9.35994 5.94658 7.11737 6.66783 5.36188 7.79964C4.79365 7.2296 4.008 6.87657 3.13945 6.87657C1.4056 6.87663 0 8.28218 0 10.0161C0 11.2242 0.683602 12.2708 1.68405 12.7956C1.60806 13.1843 1.5681 13.5816 1.5681 13.9861C1.5681 18.4972 6.46245 22.1541 12.5 22.1541C18.5375 22.1541 23.4318 18.4972 23.4318 13.9861C23.4318 13.5819 23.3919 13.1847 23.316 12.7962C24.3165 12.2713 25 11.2243 25 10.0161ZM20.1151 1.3547C20.8133 1.3547 21.3812 1.92264 21.3812 2.62078C21.3812 3.31887 20.8133 3.88682 20.1151 3.88682C19.417 3.88682 18.849 3.31887 18.849 2.62078C18.849 1.92264 19.417 1.3547 20.1151 1.3547ZM1.35464 10.0161C1.35464 9.03193 2.1553 8.23127 3.13945 8.23127C3.56096 8.23127 3.94785 8.37893 4.25311 8.62444C3.29828 9.4436 2.55906 10.4065 2.10008 11.4638C1.64931 11.14 1.35464 10.6124 1.35464 10.0161ZM19.4192 18.6765C17.587 20.0455 15.1297 20.7994 12.5 20.7994C9.87034 20.7994 7.41304 20.0455 5.58087 18.6765C3.8668 17.3958 2.92279 15.7301 2.92279 13.9861C2.92279 12.2421 3.8668 10.5763 5.58087 9.29559C7.41304 7.92664 9.87034 7.1727 12.5 7.1727C15.1297 7.1727 17.587 7.92664 19.4192 9.29559C21.1333 10.5763 22.0773 12.2421 22.0773 13.9861C22.0772 15.7301 21.1333 17.3958 19.4192 18.6765ZM22.8995 11.463C22.4404 10.4059 21.7013 9.44325 20.7466 8.62421C21.0519 8.37869 21.439 8.23127 21.8605 8.23127C22.8447 8.23127 23.6454 9.03193 23.6454 10.0161C23.6453 10.6124 23.3503 11.1393 22.8995 11.463Z" fill="#202932"/>
<path d="M8.50709 13.5083C9.29656 13.5083 9.93655 12.8683 9.93655 12.0789C9.93655 11.2894 9.29656 10.6494 8.50709 10.6494C7.71763 10.6494 7.07764 11.2894 7.07764 12.0789C7.07764 12.8683 7.71763 13.5083 8.50709 13.5083Z" fill="#202932"/>
<path d="M16.4927 13.5083C17.2822 13.5083 17.9222 12.8683 17.9222 12.0789C17.9222 11.2894 17.2822 10.6494 16.4927 10.6494C15.7033 10.6494 15.0633 11.2894 15.0633 12.0789C15.0633 12.8683 15.7033 13.5083 16.4927 13.5083Z" fill="#202932"/>
<path d="M15.8874 15.552C14.8798 16.47 13.5735 16.9756 12.2091 16.9756C10.6772 16.9756 9.25779 16.3582 8.21249 15.2372C7.95743 14.9635 7.52883 14.9486 7.25521 15.2037C6.9816 15.4588 6.96664 15.8874 7.22176 16.161C8.50722 17.5395 10.3251 18.3302 12.2092 18.3302C13.9119 18.3302 15.5422 17.6991 16.7998 16.5532C17.0763 16.3013 17.0963 15.8729 16.8443 15.5964C16.5925 15.3201 16.1643 15.2999 15.8874 15.552Z" fill="#202932"/>
</svg>
