<svg width="25" height="25" viewBox="0 0 25 25" fill="none" xmlns="http://www.w3.org/2000/svg">
<path d="M21.1636 4.32886C19.5701 3.59774 17.8614 3.05908 16.0749 2.75056C16.0424 2.74461 16.0099 2.75949 15.9931 2.78925C15.7733 3.1801 15.5299 3.68999 15.3595 4.09077C13.4379 3.80309 11.5262 3.80309 9.64408 4.09077C9.47359 3.68108 9.22134 3.1801 9.0006 2.78925C8.98384 2.76048 8.95134 2.7456 8.9188 2.75056C7.13324 3.05809 5.42454 3.59675 3.83014 4.32886C3.81634 4.33482 3.80451 4.34474 3.79666 4.35763C0.555616 9.19967 -0.33224 13.9227 0.103313 18.5872C0.105283 18.61 0.118094 18.6318 0.135831 18.6457C2.27418 20.216 4.34553 21.1694 6.37842 21.8013C6.41095 21.8112 6.44542 21.7993 6.46613 21.7725C6.94701 21.1158 7.37567 20.4234 7.7432 19.6952C7.76489 19.6526 7.74419 19.602 7.69986 19.5851C7.01993 19.3272 6.3725 19.0127 5.74972 18.6556C5.70046 18.6269 5.69651 18.5564 5.74183 18.5227C5.87289 18.4245 6.00398 18.3223 6.12912 18.2191C6.15176 18.2003 6.18331 18.1963 6.20993 18.2082C10.3013 20.0762 14.7308 20.0762 18.7739 18.2082C18.8005 18.1953 18.8321 18.1993 18.8557 18.2181C18.9809 18.3213 19.1119 18.4245 19.244 18.5227C19.2893 18.5564 19.2863 18.6269 19.2371 18.6556C18.6143 19.0197 17.9669 19.3272 17.2859 19.5841C17.2416 19.601 17.2219 19.6526 17.2436 19.6952C17.619 20.4224 18.0477 21.1148 18.5197 21.7715C18.5394 21.7993 18.5749 21.8112 18.6074 21.8013C20.6501 21.1694 22.7215 20.216 24.8598 18.6457C24.8786 18.6318 24.8904 18.611 24.8924 18.5882C25.4136 13.1955 24.0193 8.51122 21.1961 4.35862C21.1892 4.34474 21.1774 4.33482 21.1636 4.32886ZM8.35419 15.747C7.12239 15.747 6.10743 14.6161 6.10743 13.2273C6.10743 11.8384 7.10271 10.7076 8.35419 10.7076C9.61549 10.7076 10.6206 11.8484 10.6009 13.2273C10.6009 14.6161 9.60563 15.747 8.35419 15.747ZM16.6612 15.747C15.4294 15.747 14.4145 14.6161 14.4145 13.2273C14.4145 11.8384 15.4097 10.7076 16.6612 10.7076C17.9225 10.7076 18.9276 11.8484 18.908 13.2273C18.908 14.6161 17.9225 15.747 16.6612 15.747Z" fill="#202932"/>
</svg>
