<svg width="25" height="25" viewBox="0 0 25 25" fill="none" xmlns="http://www.w3.org/2000/svg">
<g clip-path="url(#clip0_41_107)">
<path d="M14.1015 11.8467C14.1015 15.6235 10.9447 18.6851 7.05087 18.6851C3.15701 18.6851 0 15.6228 0 11.8467C0 8.07063 3.15677 5.00806 7.05087 5.00806C10.945 5.00806 14.1015 8.06994 14.1015 11.8467Z" fill="#202932"/>
<path d="M21.8363 11.8467C21.8363 15.4018 20.2579 18.2848 18.3108 18.2848C16.3638 18.2848 14.7854 15.4018 14.7854 11.8467C14.7854 8.29174 16.3635 5.40869 18.3106 5.40869C20.2577 5.40869 21.836 8.29082 21.836 11.8467" fill="#202932"/>
<path d="M25 11.8466C25 15.031 24.4449 17.6141 23.76 17.6141C23.0752 17.6141 22.5204 15.0317 22.5204 11.8466C22.5204 8.66148 23.0754 6.0791 23.76 6.0791C24.4447 6.0791 25 8.66125 25 11.8466Z" fill="#202932"/>
</g>
<defs>
<clipPath id="clip0_41_107">
<rect width="25" height="24.0385" fill="white"/>
</clipPath>
</defs>
</svg>
